<svg width="307" height="81" viewBox="0 0 307 81" fill="none" xmlns="http://www.w3.org/2000/svg">
<path d="M231.472 79.8126V38.9995H243.619V46.6634H243.866C244.926 43.9498 246.527 41.8841 248.669 40.4662C250.811 39.0239 253.389 38.3027 256.402 38.3027C260.781 38.3027 264.206 39.6595 266.678 42.3731C269.173 45.0866 270.421 48.8513 270.421 53.6673V79.8126H257.885V56.4542C257.885 54.0829 257.285 52.2372 256.084 50.9171C254.907 49.5725 253.248 48.9002 251.105 48.9002C248.987 48.9002 247.268 49.6336 245.95 51.1004C244.632 52.5672 243.972 54.4618 243.972 56.7842V79.8126H231.472Z" fill="#FCFCFC"/>
<path d="M229.21 38.9983L219.04 79.8115H205.551L199.231 52.126H198.983L192.698 79.8115H179.421L169.216 38.9983H181.822L186.942 68.0039H187.189L193.334 38.9983H205.269L211.484 68.0039H211.731L216.851 38.9983H229.21Z" fill="#FCFCFC"/>
<path d="M163.461 75.0818C159.906 78.8221 155.01 80.6922 148.772 80.6922C142.533 80.6922 137.637 78.8221 134.082 75.0818C130.527 71.317 128.75 66.0855 128.75 59.3872C128.75 52.8112 130.551 47.6285 134.153 43.8393C137.754 40.0257 142.627 38.1189 148.772 38.1189C154.939 38.1189 159.812 40.0135 163.39 43.8027C166.992 47.5674 168.793 52.7623 168.793 59.3872C168.793 66.11 167.016 71.3415 163.461 75.0818ZM143.369 68.0779C144.664 70.107 146.465 71.1215 148.772 71.1215C151.079 71.1215 152.879 70.107 154.174 68.0779C155.469 66.0244 156.116 63.1275 156.116 59.3872C156.116 55.7447 155.457 52.8845 154.139 50.8066C152.821 48.7286 151.031 47.6896 148.772 47.6896C146.488 47.6896 144.687 48.7286 143.369 50.8066C142.074 52.86 141.427 55.7203 141.427 59.3872C141.427 63.1275 142.074 66.0244 143.369 68.0779Z" fill="#FCFCFC"/>
<path d="M86.374 79.8126V38.9995H98.5211V46.6634H98.7683C99.8277 43.9498 101.428 41.8841 103.571 40.4662C105.713 39.0239 108.291 38.3027 111.304 38.3027C115.682 38.3027 119.108 39.6595 121.579 42.3731C124.075 45.0866 125.323 48.8513 125.323 53.6673V79.8126H112.787V56.4542C112.787 54.0829 112.187 52.2372 110.986 50.9171C109.809 49.5725 108.149 48.9002 106.007 48.9002C103.888 48.9002 102.17 49.6336 100.852 51.1004C99.5334 52.5672 98.8743 54.4618 98.8743 56.7842V79.8126H86.374Z" fill="#FCFCFC"/>
<path d="M63.667 47.3596C61.666 47.3596 59.9828 48.0563 58.6175 49.4498C57.2521 50.8432 56.487 52.6278 56.3222 54.8035H70.9411C70.8234 52.5545 70.0937 50.7577 68.7518 49.4131C67.4335 48.0441 65.7386 47.3596 63.667 47.3596ZM71.2236 66.9778H82.5233C81.9112 71.1581 79.922 74.4951 76.5556 76.9886C73.2128 79.4577 68.999 80.6922 63.9142 80.6922C57.6994 80.6922 52.8264 78.8221 49.2952 75.0818C45.7641 71.3415 43.9985 66.1833 43.9985 59.6072C43.9985 53.0312 45.7523 47.8119 49.2599 43.9494C52.7675 40.0624 57.511 38.1189 63.4904 38.1189C69.3521 38.1189 74.025 39.9768 77.5091 43.6927C81.0167 47.3841 82.7705 52.3345 82.7705 58.5438V62.2474H56.181V63.0542C56.181 65.5477 56.9107 67.5768 58.3703 69.1413C59.8298 70.6814 61.7366 71.4515 64.0907 71.4515C65.8328 71.4515 67.3394 71.0604 68.6106 70.2781C69.8818 69.4713 70.7528 68.3713 71.2236 66.9778Z" fill="#FCFCFC"/>
<path d="M12.9593 37.0559V52.0904H20.6219C22.9995 52.0904 24.8592 51.4181 26.2011 50.0736C27.5429 48.729 28.2138 46.9078 28.2138 44.6098C28.2138 42.3363 27.5194 40.5151 26.1304 39.1461C24.7415 37.7526 22.8936 37.0559 20.5865 37.0559H12.9593ZM12.9593 61.2945V79.8126H0V26.8984H21.8931C28.202 26.8984 33.0397 28.4263 36.4061 31.4821C39.7724 34.5379 41.4556 38.8283 41.4556 44.3531C41.4556 47.6778 40.6905 50.697 39.1603 53.4105C37.6302 56.0996 35.4997 58.0675 32.769 59.3143L42.9387 79.8126H28.3904L19.6685 61.2945H12.9593Z" fill="#FCFCFC"/>
<path d="M283.725 0.912909C280.956 10.6506 273.572 18.327 264.207 21.1942C263.032 21.5567 263.032 23.2717 264.207 23.6342C273.567 26.5014 280.956 34.1778 283.725 43.9155C284.071 45.1327 285.744 45.1327 286.095 43.9155C288.864 34.1778 296.247 26.5014 305.613 23.6342C306.787 23.2717 306.787 21.5567 305.613 21.1942C296.252 18.327 288.864 10.6506 286.095 0.912909C285.749 -0.304303 284.076 -0.304303 283.725 0.912909Z" fill="url(#paint0_linear_847_27681)"/>
<defs>
<linearGradient id="paint0_linear_847_27681" x1="284.91" y1="-2.82026" x2="267.027" y2="41.8168" gradientUnits="userSpaceOnUse">
<stop stop-color="#21FFB4"/>
<stop offset="1" stop-color="#0080FF"/>
</linearGradient>
</defs>
</svg>
