<svg width="36" height="37" viewBox="0 0 36 37" fill="none" xmlns="http://www.w3.org/2000/svg">
<g id="patch-check-fill">
<path id="Vector" d="M17.998 3.42969C15.9597 3.42969 14.1913 4.40769 12.7948 5.86719C10.7635 5.82219 8.78685 6.3592 7.35735 7.7887C5.928 9.2182 5.3898 11.1952 5.43555 13.2262C3.9756 14.6227 2.99805 16.3912 2.99805 18.4297C2.99805 20.4682 3.9756 22.2367 5.43555 23.6332C5.3898 25.6642 5.928 27.6412 7.35735 29.0707C8.787 30.5002 10.7635 31.0387 12.7948 30.9922C14.1913 32.4517 15.9597 33.4297 17.998 33.4297C20.0364 33.4297 21.8047 32.4517 23.2012 30.9922C25.2325 31.0372 27.2092 30.5002 28.6387 29.0707C30.0681 27.6412 30.6063 25.6642 30.5605 23.6332C32.0205 22.2367 32.998 20.4682 32.998 18.4297C32.998 16.3912 32.0205 14.6227 30.5605 13.2262C30.6063 11.1952 30.0681 9.2182 28.6387 7.7887C27.2091 6.3592 25.2325 5.82069 23.2012 5.86719C21.8047 4.40769 20.0364 3.42969 17.998 3.42969ZM22.498 13.9297C22.8819 13.9297 23.2833 14.0587 23.5762 14.3512C24.162 14.9377 24.162 15.9217 23.5762 16.5082L17.5762 22.5082C16.9903 23.0932 16.0057 23.0932 15.4198 22.5082L12.4198 19.5082C11.8341 18.9217 11.8341 17.9377 12.4198 17.3512C13.0057 16.7662 13.9903 16.7662 14.5762 17.3512L16.498 19.2727L21.4198 14.3512C21.7128 14.0587 22.1142 13.9297 22.498 13.9297Z" fill="#34A853"/>
</g>
</svg>
