<svg width="17" height="16" viewBox="0 0 17 16" fill="none" xmlns="http://www.w3.org/2000/svg">
<path id="Vector" d="M9.33763 2.46274C9.06149 2.46273 8.83765 2.23888 8.83764 1.96275L8.83758 0.0075449C10.9717 0.0960459 12.8897 1.02027 14.2733 2.46286L9.33763 2.46274ZM8.83771 5.42894C8.83772 5.70507 9.06157 5.92892 9.3377 5.92893L16.229 5.9291C15.9545 4.90306 15.4811 3.95796 14.8534 3.13831L9.33769 3.13818C9.06154 3.13818 8.83767 3.36204 8.83768 3.63819L8.83771 5.42894ZM2.7257 13.5377C4.10879 14.9797 6.02684 15.9039 8.16145 15.993L8.16141 14.0378C8.1614 13.7617 7.93755 13.5378 7.66142 13.5378L2.7257 13.5377ZM8.83743 15.9925C10.9715 15.9041 12.8901 14.9794 14.2731 13.5374L9.3374 13.5373C9.06125 13.5373 8.83738 13.7612 8.83739 14.0373L8.83743 15.9925ZM10.9227 10.5706C10.9227 10.2944 10.6989 10.0706 10.4227 10.0706L0.770054 10.0704C1.04454 11.0964 1.51737 12.041 2.14565 12.8611L10.4227 12.8613C10.6989 12.8614 10.9228 12.6375 10.9228 12.3613L10.9227 10.5706ZM4.45161 7.0917C4.4448 6.82053 4.22302 6.60424 3.95177 6.60424L0.619875 6.60417C0.540012 7.05714 0.498202 7.52351 0.498214 7.99954C0.498225 8.47556 0.54006 8.94195 0.619944 9.39492L3.95 9.39453C4.22177 9.3945 4.44375 9.17739 4.44982 8.90569L4.47209 7.90812L4.45161 7.0917ZM11.4932 12.3619C11.4932 12.6381 11.7171 12.8619 11.9932 12.8619L14.8531 12.862C15.4813 12.0418 15.9541 11.0973 16.2285 10.0713L11.9932 10.0712C11.7171 10.0712 11.4932 10.295 11.4932 10.5712L11.4932 12.3619ZM16.378 6.60454L5.62867 6.60428C5.35252 6.60428 5.12866 6.82814 5.12866 7.10429L5.12871 8.89505C5.12871 9.17118 5.35256 9.39503 5.62869 9.39504L16.3781 9.39529C16.458 8.94232 16.4998 8.47594 16.4997 7.99992C16.4997 7.52389 16.4579 7.05752 16.378 6.60454ZM8.16116 3.63813C8.16116 3.362 7.93731 3.13815 7.66118 3.13814L2.14543 3.13801C1.51718 3.95817 1.04439 4.9027 0.76995 5.92872L7.66119 5.92889C7.93735 5.9289 8.16121 5.70503 8.16121 5.42888L8.16116 3.63813ZM8.16108 0.00753916C6.02701 0.0959394 4.10845 1.0206 2.72544 2.46258L7.66111 2.4627C7.93726 2.4627 8.16113 2.23884 8.16112 1.96269L8.16108 0.00753916Z" fill="white"/>
</svg>
