<svg width="32" height="33" viewBox="0 0 32 33" fill="none" xmlns="http://www.w3.org/2000/svg">
    <g clip-path="url(#clip0_2194_82302)">
        <path
            d="M14.8228 5.42547C15.0989 5.42546 15.3227 5.20161 15.3228 4.92548L15.3229 0.515092C11.0547 0.692095 7.21859 2.54054 4.45136 5.42571L14.8228 5.42547ZM10.6559 11.8579C10.6559 12.134 10.4321 12.3578 10.156 12.3578L0.540059 12.3582C1.08904 10.3061 2.03578 8.41593 3.29129 6.77662L10.156 6.77636C10.4322 6.77635 10.656 7.00022 10.656 7.27637L10.6559 11.8579ZM27.5466 27.5754C24.7805 30.4595 20.9444 32.3079 16.6751 32.486L16.6752 28.0756C16.6753 27.7995 16.8991 27.5756 17.1752 27.5756L27.5466 27.5754ZM15.3232 32.4849C11.055 32.3081 7.21794 30.4588 4.45191 27.5748L14.8233 27.5746C15.0994 27.5746 15.3233 27.7985 15.3233 28.0746L15.3232 32.4849ZM11.1526 21.1412C11.1526 20.865 11.3765 20.6412 11.6526 20.6412L31.4579 20.6407C30.909 22.6928 29.9633 24.5819 28.7067 26.2223L11.6525 26.2227C11.3764 26.2227 11.1525 25.9988 11.1525 25.7227L11.1526 21.1412ZM24.1193 14.2085C24.1193 13.9324 24.3432 13.7085 24.6193 13.7085L31.7583 13.7083C31.918 14.6143 32.0016 15.547 32.0016 16.4991C32.0016 17.4511 31.9179 18.3839 31.7582 19.2898L24.62 19.289C24.344 19.289 24.1202 19.0652 24.1201 18.7892L24.1193 16.3291L24.1193 14.2085ZM10.0116 25.7238C10.0116 26 9.78771 26.2238 9.51157 26.2238L3.29191 26.224C2.03541 24.5836 1.08983 22.6946 0.54095 20.6425L9.51167 20.6423C9.78782 20.6423 10.0117 20.8662 10.0117 21.1423L10.0116 25.7238ZM0.241986 13.7091L22.2407 13.7086C22.5169 13.7085 22.7407 13.9324 22.7407 14.2086L22.7406 18.7901C22.7406 19.0662 22.5168 19.2901 22.2406 19.2901L0.241846 19.2906C0.0821194 18.3846 -0.00146764 17.4519 -0.00144479 16.4998C-0.00142194 15.5478 0.0822176 14.615 0.241986 13.7091ZM12.0091 7.27629C12.0091 7.00015 12.2329 6.7763 12.5091 6.7763L28.7072 6.77601C29.9637 8.41634 30.9093 10.3054 31.4581 12.3574L12.509 12.3578C12.2328 12.3578 12.0089 12.1339 12.0089 11.8578L12.0091 7.27629ZM16.6759 0.515079C20.944 0.691879 24.7811 2.5412 27.5472 5.42517L17.1758 5.4254C16.8996 5.42541 16.6758 5.20154 16.6758 4.92539L16.6759 0.515079Z"
            fill="#6F767E" />
    </g>
    <defs>
        <clipPath id="clip0_2194_82302">
            <rect width="32" height="32" fill="white" transform="translate(0 0.5)" />
        </clipPath>
    </defs>
</svg>