<svg width="126" height="24" viewBox="0 0 126 24" fill="white" xmlns="http://www.w3.org/2000/svg">
    <g id="Group 1000003373">
        <path id="Vector"
            d="M11.8372 0.488748C10.2978 5.70206 6.19289 9.81182 0.98589 11.3469C0.332828 11.5409 0.332828 12.4591 0.98589 12.6531C6.18997 14.1882 10.2978 18.2979 11.8372 23.5113C12.0296 24.1629 12.9597 24.1629 13.155 23.5113C14.6943 18.2979 18.7993 14.1882 24.0063 12.6531C24.6594 12.4591 24.6594 11.5409 24.0063 11.3469C18.8022 9.81182 14.6943 5.70206 13.155 0.488748C12.9626 -0.162916 12.0325 -0.162916 11.8372 0.488748Z"
            fill="inherit" />
        <g id="Renown">
            <path
                d="M42.6238 2.65186C44.3678 2.65186 45.6958 3.05186 46.6078 3.85186C47.5198 4.63586 47.9758 5.65985 47.9758 6.92385C47.9758 7.29185 47.9438 7.63586 47.8798 7.95586C47.6878 9.07586 47.1998 10.0759 46.4158 10.9559C45.6318 11.8359 44.5838 12.4599 43.2718 12.8279L45.9838 19.4999H41.3518L38.9758 13.1399H37.9918L36.8638 19.4999H32.7598L35.7358 2.65186H42.6238ZM43.6798 8.12385C43.7118 7.86786 43.7278 7.69986 43.7278 7.61985C43.7278 7.10786 43.5598 6.71586 43.2238 6.44386C42.9038 6.15586 42.4238 6.01186 41.7838 6.01186H39.2398L38.4958 10.2359H41.0398C41.7918 10.2359 42.3838 10.0519 42.8158 9.68386C43.2638 9.31586 43.5518 8.79586 43.6798 8.12385Z"
                fill="inherit" />
            <path
                d="M55.808 5.91585C57.536 5.91585 58.904 6.38785 59.912 7.33185C60.936 8.25985 61.448 9.53186 61.448 11.1479C61.448 11.6759 61.408 12.1479 61.328 12.5639C61.264 12.9319 61.168 13.3239 61.04 13.7399H51.752C51.736 13.8359 51.728 13.9879 51.728 14.1959C51.728 14.8999 51.92 15.4359 52.304 15.8039C52.688 16.1719 53.2 16.3559 53.84 16.3559C54.864 16.3559 55.648 15.9239 56.192 15.0599H60.56C59.984 16.4199 59.048 17.5319 57.752 18.3959C56.456 19.2599 55 19.6919 53.384 19.6919C51.656 19.6919 50.272 19.2119 49.232 18.2519C48.208 17.2919 47.696 15.9879 47.696 14.3399C47.696 13.8439 47.744 13.3319 47.84 12.8039C48.08 11.4119 48.576 10.1959 49.328 9.15586C50.08 8.11586 51.016 7.31586 52.136 6.75586C53.256 6.19586 54.48 5.91585 55.808 5.91585ZM57.296 11.6519C57.328 11.4279 57.344 11.2759 57.344 11.1959C57.344 10.5559 57.144 10.0679 56.744 9.73186C56.344 9.37986 55.816 9.20386 55.16 9.20386C54.456 9.20386 53.832 9.41986 53.288 9.85186C52.76 10.2679 52.376 10.8679 52.136 11.6519H57.296Z"
                fill="inherit" />
            <path
                d="M71.8211 5.96386C73.1651 5.96386 74.2211 6.33986 74.9891 7.09186C75.7571 7.84385 76.1411 8.89186 76.1411 10.2359C76.1411 10.6839 76.0931 11.1639 75.9971 11.6759L74.6051 19.4999H70.5251L71.8211 12.2279C71.8691 11.9559 71.8931 11.7159 71.8931 11.5079C71.8931 10.8359 71.7011 10.3159 71.3171 9.94785C70.9491 9.57985 70.4291 9.39585 69.7571 9.39585C68.9571 9.39585 68.2851 9.64386 67.7411 10.1399C67.1971 10.6359 66.8451 11.3319 66.6851 12.2279V12.1079L65.3891 19.4999H61.2851L63.6371 6.10786H67.7411L67.4291 7.90786C67.9571 7.31586 68.5971 6.84385 69.3491 6.49185C70.1171 6.13986 70.9411 5.96386 71.8211 5.96386Z"
                fill="inherit" />
            <path
                d="M82.617 19.6919C81.465 19.6919 80.441 19.4599 79.545 18.9959C78.649 18.5319 77.9529 17.8759 77.457 17.0279C76.977 16.1799 76.737 15.1959 76.737 14.0759C76.737 12.5559 77.097 11.1719 77.817 9.92386C78.537 8.67586 79.529 7.69986 80.793 6.99586C82.057 6.27586 83.465 5.91585 85.017 5.91585C86.169 5.91585 87.193 6.15586 88.089 6.63586C89.0009 7.09986 89.7049 7.75586 90.201 8.60386C90.697 9.45186 90.945 10.4359 90.945 11.5559C90.945 13.0919 90.577 14.4839 89.841 15.7319C89.121 16.9639 88.121 17.9319 86.841 18.6359C85.577 19.3399 84.169 19.6919 82.617 19.6919ZM83.193 16.1639C83.865 16.1639 84.465 15.9639 84.993 15.5639C85.5369 15.1479 85.9529 14.6199 86.241 13.9799C86.545 13.3239 86.697 12.6439 86.697 11.9399C86.697 11.1399 86.481 10.5239 86.049 10.0919C85.617 9.65985 85.073 9.44386 84.417 9.44386C83.729 9.44386 83.121 9.65186 82.593 10.0679C82.081 10.4679 81.681 10.9959 81.393 11.6519C81.105 12.3079 80.961 12.9959 80.961 13.7159C80.961 14.4999 81.169 15.1079 81.585 15.5399C82.001 15.9559 82.5369 16.1639 83.193 16.1639Z"
                fill="inherit" />
            <path
                d="M112.418 6.10786L106.418 19.4999H101.882L101.306 10.8119L97.5862 19.4999H93.0742L91.8022 6.10786H95.9062L96.0982 15.6839L100.058 6.10786H104.402L105.002 15.6839L108.554 6.10786H112.418Z"
                fill="inherit" />
            <path
                d="M121.183 5.96386C122.527 5.96386 123.583 6.33986 124.351 7.09186C125.119 7.84385 125.503 8.89186 125.503 10.2359C125.503 10.6839 125.455 11.1639 125.359 11.6759L123.967 19.4999H119.887L121.183 12.2279C121.231 11.9559 121.255 11.7159 121.255 11.5079C121.255 10.8359 121.063 10.3159 120.679 9.94785C120.311 9.57985 119.791 9.39585 119.119 9.39585C118.319 9.39585 117.647 9.64386 117.103 10.1399C116.559 10.6359 116.207 11.3319 116.047 12.2279V12.1079L114.751 19.4999H110.647L112.999 6.10786H117.103L116.791 7.90786C117.319 7.31586 117.959 6.84385 118.711 6.49185C119.479 6.13986 120.303 5.96386 121.183 5.96386Z"
                fill="inherit" />
        </g>
    </g>
</svg>